<?xml version="1.0" encoding="UTF-8"?>
<svg width="590px" height="336px" viewBox="0 0 590 336" version="1.1" xmlns="http://www.w3.org/2000/svg" xmlns:xlink="http://www.w3.org/1999/xlink">
    <!-- Generator: Sketch 52.5 (67469) - http://www.bohemiancoding.com/sketch -->
    <title>img</title>
    <desc>Created with Sketch.</desc>
    <defs>
        <circle id="path-1" cx="33.5" cy="33.5" r="33.5"></circle>
        <path d="M8.70352695,1.165125 C4.78364013,1.90770298 2.38137012,2.47558156 1.49671692,2.86876077 C0.169737111,3.45852957 0.35009516,4.56894858 1.35009516,5.06894858 C1.83920097,5.31350148 4.40067069,6.10077001 9.07019031,6.5 C10.7653735,6.6449331 14.5939047,7.06404823 15.0469524,6.97037299 C15.5,6.87669774 15.6403518,5.93784736 15.7189037,5.48068878 C16.1156067,3.17194683 15.7782387,2 15.5,2 C15.293983,2 14.9260244,2.0378505 14.669011,2.33031017 C14.3022571,2.74764533 14.1324201,3.2976586 13.8384371,3.2976586 C13.5973126,3.2976586 12.1045304,3.39974174 10.4820938,2.41807943 C10.2275798,2.26408465 10.7598578,1.04709811 10.2412926,0.669986737 C10.1154173,0.578447592 9.60282878,0.74349368 8.70352695,1.165125 Z" id="path-3"></path>
        <path d="M8.70352695,1.165125 C4.78364013,1.90770298 2.38137012,2.47558156 1.49671692,2.86876077 C0.169737111,3.45852957 0.35009516,4.56894858 1.35009516,5.06894858 C1.83920097,5.31350148 4.40067069,6.10077001 9.07019031,6.5 C10.7653735,6.6449331 14.5939047,7.06404823 15.0469524,6.97037299 C15.5,6.87669774 15.6403518,5.93784736 15.7189037,5.48068878 C16.1156067,3.17194683 15.7782387,2 15.5,2 C15.293983,2 14.9260244,2.0378505 14.669011,2.33031017 C14.3022571,2.74764533 14.1324201,3.2976586 13.8384371,3.2976586 C13.5973126,3.2976586 12.1045304,3.39974174 10.4820938,2.41807943 C10.2275798,2.26408465 10.7598578,1.04709811 10.2412926,0.669986737 C10.1154173,0.578447592 9.60282878,0.74349368 8.70352695,1.165125 Z" id="path-5"></path>
    </defs>
    <g id="Page-1" stroke="none" stroke-width="1" fill="none" fill-rule="evenodd">
        <g id="404" transform="translate(-620.000000, -210.000000)">
            <g id="img" transform="translate(618.000000, 210.000000)">
                <ellipse id="Oval-Copy-9" fill="#E2EDF2" opacity="0.521647135" cx="40.2478692" cy="331.65012" rx="25.7478692" ry="3.65011987"></ellipse>
                <path d="M551,314 L65.9957384,314" id="Line-15" stroke="#AAD8EC" stroke-linecap="square"></path>
                <g id="Group-2" transform="translate(140.000000, 72.079042)">
                    <rect id="Rectangle" fill="#424A72" opacity="0.940104167" x="0" y="0" width="220" height="149" rx="6"></rect>
                    <rect id="Rectangle-Copy" stroke="#60BCDB" opacity="0.584960938" x="6.5" y="6.5" width="207" height="136" rx="6"></rect>
                    <rect id="Rectangle" fill="#60BCDB" x="53" y="62" width="5" height="24" rx="2"></rect>
                    <rect id="Rectangle-Copy-22" fill="#60BCDB" x="37" y="62" width="5" height="24" rx="2"></rect>
                    <rect id="Rectangle-Copy-3" fill="#60BCDB" x="69" y="32" width="5" height="54" rx="2"></rect>
                    <path d="M137,111.5 C137,110.671573 137.445431,110 137.994898,110 L201.005102,110 C201.554569,110 202,110.671573 202,111.5 C202,112.328427 201.554569,113 201.005102,113 L137.994898,113 C137.445431,113 137,112.328427 137,111.5 Z" id="Rectangle-Copy-9" fill="#ADDDED" opacity="0.808617001"></path>
                    <path d="M137,118.5 C137,117.671573 137.445431,117 137.994898,117 L201.005102,117 C201.554569,117 202,117.671573 202,118.5 C202,119.328427 201.554569,120 201.005102,120 L137.994898,120 C137.445431,120 137,119.328427 137,118.5 Z" id="Rectangle-Copy-10" fill="#ADDDED" opacity="0.808617001"></path>
                    <path d="M137,125.5 C137,124.671573 137.445431,124 137.994898,124 L201.005102,124 C201.554569,124 202,124.671573 202,125.5 C202,126.328427 201.554569,127 201.005102,127 L137.994898,127 C137.445431,127 137,126.328427 137,125.5 Z" id="Rectangle-Copy-11" fill="#ADDDED" opacity="0.808617001"></path>
                    <rect id="Rectangle-Copy-5" fill="#60BCDB" x="86" y="74" width="5" height="12" rx="2"></rect>
                    <rect id="Rectangle-Copy-7" fill="#60BCDB" x="102" y="37" width="5" height="49" rx="2"></rect>
                    <rect id="Rectangle-Copy-2" fill="#60BCDB" opacity="0.665643601" x="61" y="37" width="5" height="49" rx="2"></rect>
                    <rect id="Rectangle-Copy-23" fill="#60BCDB" opacity="0.665643601" x="45" y="75" width="5" height="11" rx="2"></rect>
                    <rect id="Rectangle-Copy-25" fill="#60BCDB" x="21" y="62" width="5" height="24" rx="2"></rect>
                    <rect id="Rectangle-Copy-24" fill="#60BCDB" opacity="0.665643601" x="29" y="53" width="5" height="33" rx="2"></rect>
                    <rect id="Rectangle-Copy-4" fill="#60BCDB" opacity="0.665643601" x="77" y="46" width="5" height="40" rx="2"></rect>
                    <rect id="Rectangle-Copy-6" fill="#60BCDB" opacity="0.665643601" x="94" y="54" width="5" height="32" rx="2"></rect>
                    <rect id="Rectangle-Copy-8" fill="#3EAED4" opacity="0.665643601" x="110" y="40" width="5" height="46" rx="2"></rect>
                    <g id="Path-2" transform="translate(136.000000, 21.000000)">
                        <mask id="mask-2" fill="white">
                            <use xlink:href="#path-1"></use>
                        </mask>
                        <use id="Mask" fill="#FFFFFF" xlink:href="#path-1"></use>
                        <path d="M33.8052561,-3.07904248 L33.8052561,33.9209575 L77.3642119,33.9209575 C69.9917234,20.3290464 64.2036527,11.3290464 60,6.92095752 C55.7963473,2.51286869 47.064766,-0.820464642 33.8052561,-3.07904248 Z" fill="#55B5D5" opacity="0.267392113" mask="url(#mask-2)"></path>
                        <path d="M34,33.9209575 L67,33.9209575 C68.9012436,39.8951967 69.2852214,44.2095481 68.1519331,46.8640116 C67.0186449,49.5184751 63.3172069,52.9745014 57.047619,57.2320904 L34,33.9209575 Z" id="Path-3" fill="#86CDE5" opacity="0.677455357" mask="url(#mask-2)"></path>
                        <path d="M34.0890491,34.2380093 L60,59.6752404 C48.4725802,68.5512144 39.8355966,72.7997868 34.0890491,72.4209575 C28.3425016,72.0421282 28.3425016,70.8754616 34.0890491,68.9209575 L34.0890491,34.2380093 Z" id="Path-4-Copy-2" fill="#ADDDED" mask="url(#mask-2)"></path>
                        <path d="M34,33.9209575 C34.5760952,62.5013245 33.5906943,75.9424616 31.0437972,74.2443688 C30.3920801,73.8098495 15.2018369,64.8472241 6.12398446,55.1770429 C0.711771289,49.4116835 -0.453848207,43.331405 -0.795562388,38.8320278 C-1.13911246,34.3084774 -0.540591664,22.0047873 1,1.92095752 L34,33.9209575 Z" id="Path-4-Copy-3" fill="#3EAED4" mask="url(#mask-2)"></path>
                        <path d="M34,33.9209575 C34.5760952,62.5013245 33.5906943,75.9424616 31.0437972,74.2443688 C30.3920801,73.8098495 15.2018369,64.8472241 6.12398446,55.1770429 C0.711771289,49.4116835 -0.453848207,43.331405 -0.795562388,38.8320278 C-1.13911246,34.3084774 -3.54059166,32.3644681 -8,33 L34,33.9209575 Z" id="Path-4-Copy-4" fill="#D2EBF4" mask="url(#mask-2)"></path>
                        <path d="M34,-0.61029027 L34.0890491,33.9561163 C33.4570094,33.0341612 30.7606597,30.6092296 26,26.6813215 C21.2393403,22.7534134 14.906007,16.1666254 7,6.92095752 C7.17583081,4.18316666 9.22764141,1.8524719 13.1554318,-0.0711267619 C17.0832222,-1.99472542 24.0314116,-2.17444659 34,-0.61029027 Z" id="Path-4-Copy" fill="#60BCDB" mask="url(#mask-2)"></path>
                    </g>
                    <circle id="Oval-Copy-7" fill="#414A79" cx="169.5" cy="54.5" r="17.5"></circle>
                    <circle id="Oval-Copy" stroke="#60BCDB" stroke-width="2" cx="26.5" cy="118.5" r="8.5"></circle>
                    <circle id="Oval-Copy-2" stroke="#60BCDB" stroke-width="2" cx="80.5" cy="118.5" r="8.5"></circle>
                    <circle id="Oval-Copy-4" stroke="#60BCDB" stroke-width="2" cx="107.5" cy="118.5" r="8.5"></circle>
                    <circle id="Oval-Copy-6" stroke="#60BCDB" stroke-width="2" opacity="0.29359654" cx="53.5" cy="118.5" r="2.5"></circle>
                    <circle id="Oval-Copy-3" stroke="#60BCDB" stroke-width="2" opacity="0.346819196" cx="53.5" cy="118.5" r="8.5"></circle>
                </g>
                <path d="M52.1121075,289 C52.0379065,288.176595 52,287.342724 52,286.5 C52,271.312169 64.3121694,259 79.5,259 C81.953487,259 84.3319303,259.3213 86.5955491,259.924119 C91.6359474,242.077985 108.04071,229 127.5,229 C147.88749,229 164.922105,243.35537 169.047253,262.509521 C173.02425,260.274615 177.613274,259 182.5,259 C197.687831,259 210,271.312169 210,286.5 C210,300.845106 199.01625,312.624821 185,313.887892 L185,314 L77,314 C63.1928813,314 52,302.807119 52,289 L52.1121075,289 Z" id="cloud" fill="#E1F3FB" fill-rule="nonzero" opacity="0.353376116" transform="translate(131.000000, 271.500000) scale(-1, 1) translate(-131.000000, -271.500000) "></path>
                <g id="woman" transform="translate(311.000000, 190.000000)">
                    <g>
                        <ellipse id="Oval" fill="#E2EDF2" opacity="0.521647135" cx="57.6391667" cy="134.065385" rx="57.6391667" ry="6.06538462"></ellipse>
                        <ellipse id="Oval-Copy-8" fill="#E2EDF2" opacity="0.521647135" cx="155.639167" cy="124.565385" rx="14.6391667" ry="1.56538462"></ellipse>
                        <path d="M97.025,93.1211538 L60.4325,93.1211538 L46.3216667,85.3 L76.1377778,85.3 C83.1325805,89.0834173 88.5403804,91.6904685 92.3611775,93.1211538 C96.1819746,94.5518392 97.7365821,94.5518392 97.025,93.1211538 Z" id="Path" fill="#9FCADE"></path>
                        <path d="M97.025,45.875 L97.025,93.1211538 L92.1619444,93.1211538 L92.1619444,91.2855769 L76.0580556,85.3 L76.0580556,39.5701923 C76.1377778,39.5701923 86.0233333,27.9980769 97.025,45.875 Z" id="Path" fill="#9FCADE"></path>
                        <path d="M92.1619444,45.0769231 L92.1619444,93.1678289 L71.195,84.5019231 L71.195,38.7721154 C71.195,38.7721154 81.0805556,27.2 92.1619444,45.0769231 Z" id="Path" fill="#7FBCD8"></path>
                        <rect id="Rectangle" fill="#BFDBE8" x="60.4325" y="93.1211538" width="36.6722222" height="6.14519231"></rect>
                        <polygon id="Path" fill="#BFDBE8" points="46.3216667 85.3 46.3216667 90.3278846 60.4325 99.2663462 60.4325 93.1211538"></polygon>
                        <rect id="Rectangle" fill="#CCDEE6" x="46.3216667" y="90.4076923" width="1.51472222" height="26.3365385"></rect>
                        <path d="M73.3475,67.8221154 C73.3475,67.8221154 58.8380556,76.0423077 50.8658333,76.8403846 C42.8936111,77.6384615 44.5677778,92.5625 44.2488889,95.2759615 C44.0097222,97.9096154 42.2558333,115.068269 42.2558333,115.068269 C42.2558333,115.068269 44.3286111,116.664423 46.3216667,115.786538 C46.3216667,115.786538 56.6855556,89.8490385 58.4394444,79.5538462 C58.4394444,79.5538462 74.6230556,73.0894231 81.5588889,66.3057692 C81.6386111,66.2259615 77.1741667,67.9019231 73.3475,67.8221154 Z" id="Path" fill="#424A72"></path>
                        <path d="M83.7113889,65.2682692 C83.7113889,65.2682692 93.9955556,77.3990385 83.7113889,86.6567308 C75.9783333,92.4826923 57.4827778,93.1211538 57.4827778,93.1211538 C57.4827778,93.1211538 59.8744444,112.115385 56.5261111,124.006731 C56.5261111,124.006731 54.5330556,125.842308 51.3441667,124.565385 C51.3441667,124.565385 50.4672222,116.105769 48.6336111,109.401923 C48.6336111,109.401923 57.0044444,86.5769231 58.5191667,79.3942308 C58.5191667,79.3942308 72.8691667,73.4086538 81.6386111,66.1461538 C81.6386111,66.2259615 82.5952778,65.7471154 83.7113889,65.2682692 Z" id="Path" fill="#353E6A"></path>
                        <path d="M61.3094444,7.00865385 C61.3094444,7.00865385 49.9333333,12.7615385 59.5,30 C61.3336111,34.0701923 57.8258333,38.4932692 59.5,44 C61.2538889,49.5865385 65.6144444,58.325 82.5155556,51.3019231 C99.4166667,44.1990385 100.130833,35.7086538 97.5,31 C94.8691667,26.2913462 92.5216667,25.3 93,17 C93.4783333,8.7 85.5727778,-0.478846154 74,0.5 C62.4272222,1.47884615 61.3094444,7.00865385 61.3094444,7.00865385 Z" id="Path" fill="#424A72"></path>
                        <path d="M72.2313889,33.5846154 C85.0666667,32.6269231 85.3058333,23.2894231 84.7477778,22.4913462 C84.7477778,22.4913462 88.8136111,19.2192308 84.9072222,15.5480769 C82.9938889,13.5528846 81.0008333,17.5432692 81.0008333,17.5432692 C81.0008333,17.5432692 70.9558333,21.3740385 62.3458333,12.4355769 C60.5,17 59.3961111,34.5423077 72.2313889,33.5846154 Z" id="Path" fill="#FFE3CD"></path>
                        <path d="M73.5069444,33.5048077 C73.5069444,33.5048077 74.2244444,36.7769231 73.5069444,38.6125 C72.7894444,40.4480769 75.1013889,43.1615385 77.4930556,40.4480769 C79.8847222,37.8144231 79.5658333,36.0586538 79.5658333,36.0586538 C79.5658333,36.0586538 78.9280556,34.5423077 79.0875,31.9884615 C79.0875,31.9884615 76.4566667,33.0259615 73.5069444,33.5048077 Z" id="Path" fill="#FBD9BE"></path>
                        <path d="M44.4880556,69.7375 C44.4880556,69.7375 62.1066667,69.6576923 64.8172222,54.0153846 C67.6075,38.3730769 73.4272222,38.6125 73.4272222,38.6125 C73.4272222,38.6125 73.3475,41.2461538 75.9783333,41.4855769 C75.9783333,41.4855769 69.2816667,65.7471154 64.2591667,68.3009615 C59.3163889,70.8548077 49.5902778,73.2490385 45.365,73.2490385 C45.4447222,73.2490385 43.6908333,71.4932692 44.4880556,69.7375 Z" id="Path" fill="#86CCEB"></path>
                        <path d="M73.3475,67.8221154 C73.3475,67.8221154 73.3475,58.6442308 71.8327778,55.9307692 C70.3180556,53.2173077 68.325,49.9451923 70.0788889,45.3163462 C71.8327778,40.6875 73.5069444,38.6125 73.5069444,38.6125 L79.5658333,36.0586538 C79.5658333,36.0586538 83.3925,35.1807692 86.0233333,36.7769231 L83.7113889,65.2682692 C83.7113889,65.2682692 78.4497222,68.3009615 73.3475,67.8221154 Z" id="Path" fill="#9ED4ED"></path>
                        <path d="M8.29416667,76.5211538 L8.29416667,79.6336538 C8.29416667,80.7509615 21.4483333,81.6288462 37.6319444,81.6288462 C53.8155556,81.6288462 66.9697222,80.7509615 66.9697222,79.6336538 L66.9697222,76.5211538 L8.29416667,76.5211538 Z" id="Path" fill="#E2EDF2"></path>
                        <ellipse id="Oval" fill="#FFFFFF" cx="37.6319444" cy="76.5211538" rx="29.3377778" ry="1.99519231"></ellipse>
                        <path d="M44.4880556,69.7375 C44.4880556,69.7375 40.5816667,69.0192308 39.4655556,69.1788462 C38.2697222,69.2586538 36.1969444,71.4134615 34.4430556,72.0519231 C32.6891667,72.6903846 35.1605556,74.0471154 37.9508333,73.5682692 C40.8208333,73.0894231 42.495,73.8875 45.4447222,73.2490385 C45.4447222,73.2490385 43.93,71.8125 44.4880556,69.7375 Z" id="Path" fill="#E2995F"></path>
                        <path d="M14.4327778,132.226923 L14.4327778,134.461538 C14.4327778,135.259615 23.9197222,135.898077 35.7186111,135.898077 C47.4377778,135.898077 57.0044444,135.259615 57.0044444,134.461538 L57.0044444,132.226923 L14.4327778,132.226923 Z" id="Path" fill="#E2EDF2"></path>
                        <polygon id="Path" fill="#424A72" points="13.2369444 54.4942308 21.0497222 75.9625 46.4013889 75.9625 38.5088889 54.4942308"></polygon>
                        <path d="M57.0044444,132.226923 C57.0044444,133.025 47.5175,133.663462 35.7186111,133.663462 C23.9994444,133.663462 14.4327778,133.025 14.4327778,132.226923 C14.4327778,131.428846 23.9197222,130.790385 35.7186111,130.790385 C47.5175,130.710577 57.0044444,131.428846 57.0044444,132.226923 Z" id="Path" fill="#FFFFFF"></path>
                        <rect id="Rectangle" fill="#E2EDF2" x="33.8052778" y="81.6288462" width="3.82666667" height="49.8"></rect>
                        <path d="M52.0382077,124.802093 C52.0382077,124.802093 51.9547519,126.701841 48.8455852,128.218188 C45.7364186,129.814341 42.1549379,130.783654 43.1116046,132.060577 C44.0682713,133.417308 50.9243824,131.501923 52.9971602,131.2625 C55.0699379,131.023077 57.6544074,129.149786 57.4152407,127.793056 C57.1760741,126.436325 56.2841415,124.598834 56.0449748,124.419343 C55.8058081,124.239852 55.1473743,125.360747 52.0382077,124.802093 Z" id="Path" fill="#FBD9BE"></path>
                        <path d="M41.4470446,114.19247 C41.4470446,114.19247 41.4110102,114.924738 38.3018436,116.441084 C35.1926769,118.037238 31.3523635,120.377062 32.3090302,121.653985 C33.2656969,123.010716 39.5963183,120.377564 41.669096,120.138141 C43.7418738,119.898718 45.974096,118.941025 45.7349294,117.584295 C45.6190909,116.927173 45.3013475,116.229974 45.0316357,115.251715 C44.9639492,115.006213 44.8931732,114.575043 44.8193078,113.958204 C43.8821753,114.365198 42.7580876,114.443287 41.4470446,114.19247 Z" id="Path-Copy" fill="#FBD9BE" transform="translate(38.956260, 117.999291) rotate(18.000000) translate(-38.956260, -117.999291) "></path>
                        <polygon id="Path" fill="#454E7D" points="46.4013889 75.9625 63.0633333 75.9625 63.0633333 74.925 46.0027778 74.925"></polygon>
                        <path d="M62.1863889,75.8826923 C62.1863889,75.8826923 83.5519444,67.1038462 84.0302778,60.9586538 C84.5086111,54.8134615 81.9575,42.8423077 83.3127778,39.8894231 C84.6680556,36.8567308 85.9436111,36.7769231 85.9436111,36.7769231 C85.9436111,36.7769231 90.4877778,36.7769231 91.1255556,42.4432692 C91.8430556,48.1096154 91.6038889,64.7894231 84.9072222,68.9394231 C78.2105556,73.0894231 63.1430556,78.1173077 63.1430556,78.1173077 C63.1430556,78.1173077 61.3891667,77.7980769 62.1863889,75.8826923 Z" id="Path" fill="#86CCEB"></path>
                        <path d="M62.1863889,75.8826923 C62.1863889,75.8826923 58.6786111,75.7230769 57.3233333,75.8826923 C55.9680556,76.0423077 53.6561111,78.1173077 52.2211111,78.9153846 C50.7861111,79.7134615 51.1847222,80.9105769 51.9022222,80.9105769 C51.9022222,80.9105769 53.8155556,81.6288462 56.7652778,80.9105769 C59.715,80.1923077 63.2227778,78.1173077 63.2227778,78.1173077 C63.2227778,78.1173077 61.5486111,77.5586538 62.1863889,75.8826923 Z" id="Path" fill="#FBD9BE"></path>
                        <path d="M62.0269444,23.05 C62.3458333,23.2096154 62.6647222,23.3692308 62.9038889,23.5288462 C63.1430556,23.6884615 63.3822222,23.7682692 63.5416667,23.7682692 C63.7011111,23.7682692 63.8605556,23.7682692 64.0997222,23.6086538 C64.1794444,23.5288462 64.3388889,23.4490385 64.4983333,23.3692308 C64.6577778,23.2894231 64.7375,23.2096154 64.8969444,23.05 C64.8969444,23.4490385 64.8172222,23.7682692 64.6577778,24.0875 C64.4983333,24.4067308 64.02,24.7259615 63.4619444,24.6461538 C62.9836111,24.5663462 62.585,24.3269231 62.4255556,24.0076923 C62.1066667,23.7682692 62.0269444,23.4490385 62.0269444,23.05 Z" id="Path" fill="#F8CBAC"></path>
                        <path d="M69.3613889,21.6134615 C70.3180556,21.6932692 71.1152778,21.6134615 71.6733333,21.2144231 C71.9922222,21.0548077 72.2313889,20.8153846 72.5502778,20.4961538 C72.7097222,20.3365385 72.7894444,20.1769231 72.9488889,20.0173077 C73.1083333,19.8576923 73.1880556,19.6980769 73.4272222,19.4586538 C73.4272222,19.6980769 73.4272222,19.9375 73.4272222,20.1769231 C73.3475,20.4163462 73.2677778,20.6557692 73.1880556,20.8951923 C72.9488889,21.3740385 72.63,21.7730769 72.1516667,22.0125 C71.6733333,22.2519231 71.1152778,22.3317308 70.6369444,22.2519231 C70.1586111,22.2519231 69.6802778,22.0125 69.3613889,21.6134615 Z" id="Path" fill="#F8CBAC"></path>
                        <path d="M69.3613889,29.5144231 C69.9991667,29.0355769 70.6455556,29.5 71,28.5 C71.3544444,27.5 71.2747222,26.8807692 71.3544444,26.4019231 C71.6733333,26.7211538 71.9125,27.0403846 71.9125,27.5192308 C71.9922222,27.9182692 71.8327778,28.4769231 71.5936111,28.8759615 C71.2747222,29.275 70.8761111,29.5144231 70.4775,29.5942308 C70.2383333,29.6740385 69.76,29.6740385 69.3613889,29.5144231 Z" id="Path" fill="#F8CBAC"></path>
                        <rect id="Rectangle" fill="#CCDEE6" x="60.4325" y="99.2663462" width="1.51472222" height="36.5519231"></rect>
                        <rect id="Rectangle" fill="#CCDEE6" x="95.5102778" y="99.2663462" width="1.51472222" height="36.5519231"></rect>
                        <rect id="Rectangle" fill="#CCDEE6" x="70.9558333" y="99.2663462" width="1.51472222" height="17.7173077"></rect>
                    </g>
                    <g id="Group" transform="translate(30.000000, 115.000000)">
                        <g id="Mask">
                            <path d="M0.781706888,3.37368321 C0.331178527,4.10251188 0.274420936,4.6771921 0.611434113,5.09772388 C0.725392579,5.23992353 1.47600096,5.98754946 2.84503208,6.32512624 C6.49219543,7.22444666 13.3324403,8.42308944 15,7.96967235 C15.2435696,7.90344466 15.7263574,6.94863573 15.2513703,5.72123337 C15.0488439,5.19788975 13.8413963,5.82000317 13.5123367,5.67569536 C12.7851681,5.35679838 10.160145,5.16414122 5.63726755,5.09772388 L0.781706888,3.37368321 Z" id="Path-13" fill="#E2F6FD"></path>
                            <g id="Path-14">
                                <mask id="mask-4" fill="white">
                                    <use xlink:href="#path-3"></use>
                                </mask>
                                <use id="Mask" fill="#86CCEB" xlink:href="#path-3"></use>
                            </g>
                        </g>
                        <path d="M1.9945395,2.66929983 C2.2653398,3.19853675 3.1626111,3.39017934 4.6863534,3.24422762 C6.14861175,3.10416514 7.66883891,2.62576503 10.6345232,2.5 C10.6985682,2.49728406 10.4567611,2.43608639 10.4567611,2.25207087 C10.4567611,2.06805534 10.6186672,0.784410032 10.2870958,0.587169612 C10.1230431,0.489580311 9.00753236,0.943302906 7.74607991,1.27378586 C6.45797613,1.61125109 4.99371638,1.9152971 4.25602214,2.07956649 C3.28260525,2.29632648 2.52877771,2.49290426 1.9945395,2.66929983 Z" id="Path-12" fill="#7FCBE5"></path>
                        <path d="M3.40788371,2.26358566 C3.79358729,2.3913096 4.05345938,2.51552097 4.1875,2.63621976 C4.32154062,2.75691855 4.44214173,2.97530973 4.54930333,3.2913933" id="Path-16" stroke="#FFFFFF" stroke-width="0.3" stroke-linecap="round"></path>
                        <path d="M5.16570028,1.89468747 C5.76512694,2.19215872 6.10078978,2.5855089 6.1726888,3.07473802" id="Path-16-Copy" stroke="#FFFFFF" stroke-width="0.3" stroke-linecap="round"></path>
                        <path d="M6.60619843,1.63235695 C7.18973744,2.04244226 7.51745645,2.49209947 7.58935547,2.98132859" id="Path-16-Copy-2" stroke="#FFFFFF" stroke-width="0.3" stroke-linecap="round"></path>
                        <path d="M7.86697982,1.31512236 C8.42735126,1.70186502 8.7434865,2.1398509 8.81538552,2.62908002" id="Path-16-Copy-3" stroke="#FFFFFF" stroke-width="0.3" stroke-linecap="round"></path>
                    </g>
                    <g id="Group-Copy" transform="translate(49.966111, 130.642345) rotate(-17.000000) translate(-49.966111, -130.642345) translate(41.966111, 126.142345)">
                        <g id="Mask">
                            <path d="M0.781706888,3.37368321 C0.331178527,4.10251188 0.274420936,4.6771921 0.611434113,5.09772388 C0.725392579,5.23992353 1.47600096,5.98754946 2.84503208,6.32512624 C6.49219543,7.22444666 13.3324403,8.42308944 15,7.96967235 C15.2435696,7.90344466 15.7263574,6.94863573 15.2513703,5.72123337 C15.0488439,5.19788975 13.8413963,5.82000317 13.5123367,5.67569536 C12.7851681,5.35679838 10.160145,5.16414122 5.63726755,5.09772388 L0.781706888,3.37368321 Z" id="Path-13" fill="#E2F6FD"></path>
                            <g id="Path-14">
                                <mask id="mask-6" fill="white">
                                    <use xlink:href="#path-5"></use>
                                </mask>
                                <use id="Mask" fill="#86CCEB" xlink:href="#path-5"></use>
                            </g>
                        </g>
                        <path d="M1.9945395,2.66929983 C2.2653398,3.19853675 3.1626111,3.39017934 4.6863534,3.24422762 C6.14861175,3.10416514 7.66883891,2.62576503 10.6345232,2.5 C10.6985682,2.49728406 10.4567611,2.43608639 10.4567611,2.25207087 C10.4567611,2.06805534 10.6186672,0.784410032 10.2870958,0.587169612 C10.1230431,0.489580311 9.00753236,0.943302906 7.74607991,1.27378586 C6.45797613,1.61125109 4.99371638,1.9152971 4.25602214,2.07956649 C3.28260525,2.29632648 2.52877771,2.49290426 1.9945395,2.66929983 Z" id="Path-12" fill="#7FCBE5"></path>
                        <path d="M3.40788371,2.26358566 C3.79358729,2.3913096 4.05345938,2.51552097 4.1875,2.63621976 C4.32154062,2.75691855 4.44214173,2.97530973 4.54930333,3.2913933" id="Path-16" stroke="#FFFFFF" stroke-width="0.3" stroke-linecap="round"></path>
                        <path d="M5.16570028,1.89468747 C5.76512694,2.19215872 6.10078978,2.5855089 6.1726888,3.07473802" id="Path-16-Copy" stroke="#FFFFFF" stroke-width="0.3" stroke-linecap="round"></path>
                        <path d="M6.60619843,1.63235695 C7.18973744,2.04244226 7.51745645,2.49209947 7.58935547,2.98132859" id="Path-16-Copy-2" stroke="#FFFFFF" stroke-width="0.3" stroke-linecap="round"></path>
                        <path d="M7.86697982,1.31512236 C8.42735126,1.70186502 8.7434865,2.1398509 8.81538552,2.62908002" id="Path-16-Copy-3" stroke="#FFFFFF" stroke-width="0.3" stroke-linecap="round"></path>
                    </g>
                </g>
                <g id="Group-3" transform="translate(75.000000, 156.000000)">
                    <rect id="Rectangle-Copy-21" fill="#9AD8F4" opacity="0.06" x="2" y="2" width="92" height="35" rx="6"></rect>
                    <rect id="Rectangle" fill="#9AD8F4" opacity="0.213076637" x="0" y="0" width="92" height="35" rx="6"></rect>
                    <rect id="Rectangle" stroke="#FFFFFF" fill="#FFFFFF" x="10.5" y="8.5" width="10" height="10" rx="5"></rect>
                    <path d="M27.5,9.5 L80.5,9.5" id="Line" stroke="#FFFFFF" stroke-width="2" stroke-linecap="round"></path>
                    <path d="M27.5,17.5 L80.5,17.5" id="Line-Copy" stroke="#FFFFFF" stroke-width="2" stroke-linecap="round"></path>
                    <path d="M11,26 L80.5,26" id="Line-Copy-2" stroke="#FFFFFF" stroke-width="2" stroke-linecap="round"></path>
                </g>
                <g id="Group-3-Copy" transform="translate(15.000000, 37.000000)">
                    <path d="M0.0129320586,72 C0.00434618016,71.8344194 0,71.6677173 0,71.5 C0,66.2532949 4.25329488,62 9.5,62 C10.2342917,62 10.9491257,62.0833085 11.6355659,62.2409895 C13.4549314,56.3112466 18.9739929,52 25.5,52 C32.418677,52 38.205587,56.8456707 39.6520778,63.32836 C41.0713018,62.4845727 42.7290619,62 44.5,62 C49.7467051,62 54,66.2532949 54,71.5 C54,76.5789879 50.0142824,80.7270615 45,80.9870679 L45,81 L9,81 C4.02943725,81 6.08718376e-16,76.9705627 0,72 L0.0129320586,72 Z" id="cloud-copy-2" fill="#E1F3FB" fill-rule="nonzero" opacity="0.425176711" transform="translate(27.000000, 66.500000) scale(-1, 1) translate(-27.000000, -66.500000) "></path>
                    <path d="M498.740991,161.998067 C498.660798,161.999354 498.580466,162 498.5,162 C496.031595,162 493.689789,161.392268 491.587112,160.302974 C485.912309,157.548961 482,151.731365 482,145 L482.053453,145 C482.018045,144.505237 482,144.004981 482,143.5 C482,133.282732 489.387302,125 498.5,125 C499.77401,125 501.014296,125.161892 502.205387,125.468329 C505.49156,114.176483 515.126175,106 526.5,106 C538.723368,106 548.93801,115.443548 551.422799,128.048621 C554.026771,126.12166 557.146557,125 560.5,125 C569.612698,125 577,133.282732 577,143.5 C577,153.529734 569.881391,161.695296 561,161.991668 L561,162 L499,162 C498.913511,162 498.827173,161.999354 498.740991,161.998067 Z" id="cloud-copy-3" fill="#E1F3FB" fill-rule="nonzero" opacity="0.351702009" transform="translate(529.500000, 134.000000) scale(-1, 1) translate(-529.500000, -134.000000) "></path>
                    <g id="Group-5" transform="translate(328.000000, 0.000000)">
                        <rect id="Rectangle-Copy-20" fill="#A7D6EB" opacity="0" x="0" y="3" width="92" height="63" rx="6"></rect>
                        <rect id="Rectangle" fill="#9AD8F4" opacity="0.213076637" x="3" y="0" width="92" height="63" rx="6"></rect>
                        <rect id="Rectangle" stroke="#FFFFFF" fill="#FFFFFF" x="13.5" y="8.5" width="10" height="10" rx="5"></rect>
                        <rect id="Rectangle-Copy-19" stroke="#FFFFFF" fill="#FFFFFF" x="13.5" y="35" width="10" height="10" rx="5"></rect>
                        <path d="M30.5,9.5 L83.5,9.5" id="Line" stroke="#FFFFFF" stroke-width="2" stroke-linecap="round"></path>
                        <path d="M30.5,36 L83.5,36" id="Line-Copy-3" stroke="#FFFFFF" stroke-width="2" stroke-linecap="round"></path>
                        <path d="M30.5,17.5 L83.5,17.5" id="Line-Copy" stroke="#FFFFFF" stroke-width="2" stroke-linecap="round"></path>
                        <path d="M30.5,44 L83.5,44" id="Line-Copy-4" stroke="#FFFFFF" stroke-width="2" stroke-linecap="round"></path>
                        <path d="M14,26.5 L83.5,26.5" id="Line-Copy-2" stroke="#FFFFFF" stroke-width="2" stroke-linecap="round"></path>
                        <path d="M14,53 L83.5,53" id="Line-Copy-5" stroke="#FFFFFF" stroke-width="2" stroke-linecap="round"></path>
                    </g>
                </g>
                <path d="M309.805256,86.5 L309.805256,165.52326" id="Line-2" stroke="#414A79" stroke-linecap="square"></path>
                <path d="M306.305256,89 L306.305256,164.958134" id="Line-2-Copy" stroke="#414A79" stroke-linecap="square" transform="translate(306.500000, 127.000000) rotate(-270.000000) translate(-306.500000, -127.000000) "></path>
                <path d="M298.168772,90.2812612 L300.600422,144.663446" id="Line-2-Copy-2" stroke="#414A79" stroke-linecap="square" transform="translate(299.558661, 117.523899) rotate(-223.000000) translate(-299.558661, -117.523899) "></path>
                <path id="Path-7" d="M247.450414,224.84525 C249.935566,224.870554 251.929667,226.905681 251.904363,229.390834 C251.879059,231.875987 249.843932,233.870088 247.358779,233.844784 C244.873627,233.81948 242.879526,231.784352 242.90483,229.2992 C242.930134,226.814047 244.965261,224.819946 247.450414,224.84525 Z M247.440232,225.845198 C245.507336,225.825517 243.924459,227.376485 243.904778,229.309381 C243.885097,231.242278 245.436065,232.825154 247.368961,232.844835 C249.301857,232.864516 250.884734,231.313549 250.904415,229.380652 C250.924096,227.447756 249.373129,225.864879 247.440232,225.845198 Z M319.154597,268.581046 L319.154597,269.581046 L314.154597,269.581046 L314.154597,268.581046 L319.154597,268.581046 Z M309.154597,268.581046 L309.154597,269.581046 L304.154597,269.581046 L304.154597,268.581046 L309.154597,268.581046 Z M299.154597,268.581046 L299.154597,269.581046 L294.154597,269.581046 L294.154597,268.581046 L299.154597,268.581046 Z M289.154597,268.581046 L289.154597,269.581046 L284.154597,269.581046 L284.154597,268.581046 L289.154597,268.581046 Z M279.154597,268.581046 L279.154597,269.581046 L274.154597,269.581046 L274.154597,268.581046 L279.154597,268.581046 Z M269.154597,268.581046 L269.154597,269.581046 L264.154597,269.581046 L264.154597,268.581046 L269.154597,268.581046 Z M259.154597,268.581046 L259.154597,269.581046 L254.154597,269.581046 L254.154597,268.581046 L259.154597,268.581046 Z M247.505117,268.581046 L249.154597,268.581046 L249.154597,269.581046 L247,269.581046 L246.494883,269.581046 L246.500026,269.075955 L246.528997,266.230699 L247.528945,266.240881 L247.505117,268.581046 Z M247.579853,261.24114 L246.579905,261.230959 L246.630812,256.231218 L247.630761,256.241399 L247.579853,261.24114 Z M247.681668,251.241658 L246.68172,251.231477 L246.732628,246.231736 L247.732576,246.241918 L247.681668,251.241658 Z M247.783484,241.242177 L246.783536,241.231995 L246.834444,236.232254 L247.834392,236.242436 L247.783484,241.242177 Z" fill="#65BEDD" fill-rule="nonzero"></path>
                <path id="Path-7-Copy-2" d="M99.9045966,43.5338785 L99.9045966,45.2312523 L98.9045966,45.2312523 L98.9045966,43.5338785 C96.6546213,43.2851564 94.9045966,41.3776197 94.9045966,39.0613429 C94.9045966,36.5760615 96.9193152,34.5613429 99.4045966,34.5613429 C101.889878,34.5613429 103.904597,36.5760615 103.904597,39.0613429 C103.904597,41.3776197 102.154572,43.2851564 99.9045966,43.5338785 Z M99.4045966,35.5613429 C97.4715999,35.5613429 95.9045966,37.1283463 95.9045966,39.0613429 C95.9045966,40.9943395 97.4715999,42.5613429 99.4045966,42.5613429 C101.337593,42.5613429 102.904597,40.9943395 102.904597,39.0613429 C102.904597,37.1283463 101.337593,35.5613429 99.4045966,35.5613429 Z M246.5,118.876322 L247.5,118.876322 L247.5,123.876322 L246.5,123.876322 L246.5,118.876322 Z M246.5,128.876322 L247.5,128.876322 L247.5,133.876322 L246.5,133.876322 L246.5,128.876322 Z M246.5,138.876322 L247.5,138.876322 L247.5,143.876322 L246.5,143.876322 L246.5,138.876322 Z M246.379763,147.756085 L246.379763,148.756085 L241.379763,148.756085 L241.379763,147.756085 L246.379763,147.756085 Z M236.379763,147.756085 L236.379763,148.756085 L231.379763,148.756085 L231.379763,147.756085 L236.379763,147.756085 Z M226.379763,147.756085 L226.379763,148.756085 L221.379763,148.756085 L221.379763,147.756085 L226.379763,147.756085 Z M216.379763,147.756085 L216.379763,148.756085 L211.379763,148.756085 L211.379763,147.756085 L216.379763,147.756085 Z M206.379763,147.756085 L206.379763,148.756085 L201.379763,148.756085 L201.379763,147.756085 L206.379763,147.756085 Z M196.379763,147.756085 L196.379763,148.756085 L191.379763,148.756085 L191.379763,147.756085 L196.379763,147.756085 Z M186.379763,147.756085 L186.379763,148.756085 L181.379763,148.756085 L181.379763,147.756085 L186.379763,147.756085 Z M176.379763,147.756085 L176.379763,148.756085 L171.379763,148.756085 L171.379763,147.756085 L176.379763,147.756085 Z M166.379763,147.756085 L166.379763,148.756085 L161.379763,148.756085 L161.379763,147.756085 L166.379763,147.756085 Z M156.379763,147.756085 L156.379763,148.756085 L151.379763,148.756085 L151.379763,147.756085 L156.379763,147.756085 Z M146.379763,147.756085 L146.379763,148.756085 L141.379763,148.756085 L141.379763,147.756085 L146.379763,147.756085 Z M136.379763,147.756085 L136.379763,148.756085 L131.379763,148.756085 L131.379763,147.756085 L136.379763,147.756085 Z M126.379763,147.756085 L126.379763,148.756085 L121.379763,148.756085 L121.379763,147.756085 L126.379763,147.756085 Z M116.379763,147.756085 L116.379763,148.756085 L111.379763,148.756085 L111.379763,147.756085 L116.379763,147.756085 Z M106.379763,147.756085 L106.379763,148.756085 L101.379763,148.756085 L101.379763,147.756085 L106.379763,147.756085 Z M99.9045966,145.231252 L98.9045966,145.231252 L98.9045966,140.231252 L99.9045966,140.231252 L99.9045966,145.231252 Z M99.9045966,135.231252 L98.9045966,135.231252 L98.9045966,130.231252 L99.9045966,130.231252 L99.9045966,135.231252 Z M99.9045966,125.231252 L98.9045966,125.231252 L98.9045966,120.231252 L99.9045966,120.231252 L99.9045966,125.231252 Z M99.9045966,115.231252 L98.9045966,115.231252 L98.9045966,110.231252 L99.9045966,110.231252 L99.9045966,115.231252 Z M99.9045966,105.231252 L98.9045966,105.231252 L98.9045966,100.231252 L99.9045966,100.231252 L99.9045966,105.231252 Z M99.9045966,95.2312523 L98.9045966,95.2312523 L98.9045966,90.2312523 L99.9045966,90.2312523 L99.9045966,95.2312523 Z M99.9045966,85.2312523 L98.9045966,85.2312523 L98.9045966,80.2312523 L99.9045966,80.2312523 L99.9045966,85.2312523 Z M99.9045966,75.2312523 L98.9045966,75.2312523 L98.9045966,70.2312523 L99.9045966,70.2312523 L99.9045966,75.2312523 Z M99.9045966,65.2312523 L98.9045966,65.2312523 L98.9045966,60.2312523 L99.9045966,60.2312523 L99.9045966,65.2312523 Z M99.9045966,55.2312523 L98.9045966,55.2312523 L98.9045966,50.2312523 L99.9045966,50.2312523 L99.9045966,55.2312523 Z" fill="#65BEDD" fill-rule="nonzero"></path>
                <path id="Path-7-Copy" d="M369.791697,70.3753701 L367.927408,70.3753701 L367.927408,69.3753701 L369.791697,69.3753701 C370.040419,67.1253948 371.947955,65.3753701 374.264232,65.3753701 C376.749514,65.3753701 378.764232,67.3900887 378.764232,69.8753701 C378.764232,72.3606514 376.749514,74.3753701 374.264232,74.3753701 C371.947955,74.3753701 370.040419,72.6253453 369.791697,70.3753701 Z M377.764232,69.8753701 C377.764232,67.9423735 376.197229,66.3753701 374.264232,66.3753701 C372.331236,66.3753701 370.764232,67.9423735 370.764232,69.8753701 C370.764232,71.8083667 372.331236,73.3753701 374.264232,73.3753701 C376.197229,73.3753701 377.764232,71.8083667 377.764232,69.8753701 Z M459.919939,159.581138 L459.939138,160.580954 L454.94006,160.676952 L454.92086,159.677136 L459.919939,159.581138 Z M449.921782,159.773134 L449.940982,160.772949 L444.941903,160.868947 L444.922704,159.869131 L449.921782,159.773134 Z M439.923625,159.965129 L439.942825,160.964945 L434.943747,161.060942 L434.924547,160.061127 L439.923625,159.965129 Z M429.925469,160.157124 L429.944668,161.15694 L424.94559,161.252938 L424.92639,160.253122 L429.925469,160.157124 Z M419.927312,160.349119 L419.946511,161.348935 L414.947433,161.444933 L414.928234,160.445117 L419.927312,160.349119 Z M409.929155,160.541115 L409.948355,161.54093 L404.949276,161.636928 L404.930077,160.637112 L409.929155,160.541115 Z M399.930998,160.73311 L399.950198,161.732926 L394.95112,161.828923 L394.93192,160.829108 L399.930998,160.73311 Z M389.932842,160.925105 L389.952041,161.924921 L384.952963,162.020919 L384.933763,161.021103 L389.932842,160.925105 Z M379.934685,161.117101 L379.953885,162.116916 L374.954806,162.212914 L374.935607,161.213098 L379.934685,161.117101 Z M369.936528,161.309096 L369.955728,162.308912 L364.956649,162.404909 L364.93745,161.405094 L369.936528,161.309096 Z M360.5,161.947962 L359.5,161.947962 L359.5,156.947962 L360.5,156.947962 L360.5,161.947962 Z M360.5,151.947962 L359.5,151.947962 L359.5,146.947962 L360.5,146.947962 L360.5,151.947962 Z M360.5,141.947962 L359.5,141.947962 L359.5,136.947962 L360.5,136.947962 L360.5,141.947962 Z M360.5,131.947962 L359.5,131.947962 L359.5,126.947962 L360.5,126.947962 L360.5,131.947962 Z M360.5,121.947962 L359.5,121.947962 L359.5,116.947962 L360.5,116.947962 L360.5,121.947962 Z M360.5,111.947962 L359.5,111.947962 L359.5,106.947962 L360.5,106.947962 L360.5,111.947962 Z M360.5,101.947962 L359.5,101.947962 L359.5,96.9479618 L360.5,96.9479618 L360.5,101.947962 Z M360.5,91.9479618 L359.5,91.9479618 L359.5,86.9479618 L360.5,86.9479618 L360.5,91.9479618 Z M360.5,81.9479618 L359.5,81.9479618 L359.5,76.9479618 L360.5,76.9479618 L360.5,81.9479618 Z M360.5,70.3753701 L360.5,71.9479618 L359.5,71.9479618 L359.5,69.8753701 L359.5,69.3753701 L360,69.3753701 L362.927408,69.3753701 L362.927408,70.3753701 L360.5,70.3753701 Z" fill="#65BEDD" fill-rule="nonzero"></path>
                <g id="Plant-Right" opacity="0.7" transform="translate(449.000000, 202.000000)">
                    <path d="M22.3050734,31.4922552 C18.4953286,31.6942498 14.0413501,34.3948319 14.0692663,38.5492277 C14.089633,41.5677528 14.4936853,44.5372655 14.3527838,47.5682287 C14.2399696,49.9906099 13.711977,52.3601099 12.892036,54.6420423 C12.1036132,56.8363613 10.1996537,58.8338355 9.89035037,61.1220201 C9.69318124,62.5800117 10.0973661,64.5593554 10.7214818,65.8996375 C11.4804532,67.5291976 11.157467,67.428048 10.148353,68.9683761 C8.17097504,71.9869505 6.4269722,75.0525759 5.33078163,78.5247649 C3.75175361,83.5259633 2.97452594,89.2595434 4.2973416,94.4132943 C4.46552193,95.0677611 4.83277979,97.4411163 5.76722942,97.5114925 C6.81090041,97.5902861 6.18864823,96.2762395 6.08765235,95.8412541 C5.44365803,93.0657334 4.87569918,90.6401693 4.99581221,87.7399198 C5.45940587,76.5497963 12.6147959,68.4571297 16.7878131,58.5625774 C17.0205629,58.0504768 17.4982235,56.8391093 17.8346334,56.0376969 C18.3657454,54.7724446 18.7868462,52.4268531 19.582808,51.4464096 C21.0818306,49.5993805 19.8953149,53.1205403 19.6364044,53.7961501 C19.3090893,54.6507356 18.945826,55.5606089 18.5977532,56.315876 C17.0095912,59.8141364 15.2283792,63.6377956 13.5874585,67.2442864 C22.4348052,68.3016001 27.4301744,57.2912048 29.0323498,50.2293178 C30.3524339,44.4110968 31.2578776,31.0372447 22.3050734,31.4922552" id="Leaf-Me-Alone!" fill="#6FC7EE" transform="translate(16.744445, 64.497909) scale(-1, 1) rotate(6.000000) translate(-16.744445, -64.497909) "></path>
                    <path d="M58.6968157,22.033804 C52.2635615,22.5388588 48.1335535,26.7391964 46.2110208,32.6141278 C45.1748444,35.7801713 45.0560789,39.0326212 44.4802673,42.2862451 C43.6140608,47.181356 41.7503183,50.8909615 38.1079367,54.3784462 C36.9797822,55.4585263 36.1484231,56.5674868 35.5574398,57.7539313 C34.3842445,58.9384975 33.3630027,60.2789708 32.6127171,61.9178749 C31.6542955,64.0108823 31.3831022,66.5220686 32.4896845,68.6087364 C32.7871911,69.1696736 33.5294168,70.2957745 34.2986669,70.8074038 C31.4186608,76.8765147 29.8351197,83.5234686 30.0136236,90.1619696 C30.1214846,94.1693016 30.3191902,98.1782772 30.5498467,102.180678 C30.6119556,103.255358 30.9656447,105.029977 31.4968896,103.227652 C31.9830936,101.579121 31.3733829,98.9911548 31.3169633,97.2688967 C31.0424512,88.8790223 30.8077648,81.2506044 34.2981928,73.4120404 C34.6642089,72.5904751 35.0522713,71.7754843 35.4564535,70.9670678 C35.4801592,70.9534494 35.5022056,70.9370134 35.5244889,70.921047 C35.5398976,70.932787 35.553884,70.9454662 35.5692927,70.9569714 C35.5951319,70.9114202 35.6304534,70.8571814 35.6717013,70.796603 C35.7876222,70.6782638 35.8888456,70.5286962 35.9850908,70.3617533 C36.2946873,69.9372349 36.6450576,69.4385196 36.6469541,69.1654472 C36.6469541,69.163334 36.6457688,69.1600468 36.6457688,69.1579336 C38.8065438,65.6678661 41.2814194,62.3700998 43.8093958,59.1369035 C43.7904313,59.1603835 46.5514347,55.4406815 46.124495,57.4977645 C45.9187295,58.4890902 43.8878617,60.3768824 43.0676443,61.4269081 C41.2532096,63.7629335 39.1225408,66.7228226 37.3519617,69.5850349 C37.1137194,69.7205145 36.7770984,70.3857029 36.5336408,70.881131 C36.3992294,71.1321322 36.2738263,71.3852466 36.1505566,71.6057239 C42.4242715,73.656702 47.304565,69.5253957 50.6323719,64.7202132 C50.6364019,64.714578 50.6399577,64.708708 50.6437506,64.7030728 C51.6564584,63.3752787 52.69382,62.0568766 53.9898109,61.0073205 C56.1520083,59.2559471 58.4675816,58.9469503 61.0168931,58.0849994 C67.9690653,55.7346512 70.9249297,46.8195291 71.8636756,40.2045081 C72.9228465,32.7416242 67.7419646,21.2979407 58.6968157,22.033804" id="Leaf-Me-Alone!" fill="#D4EDF8"></path>
                    <path d="M52.2004172,2.30911873 C44.7818563,8.12537839 40.3433717,17.0149612 36.634458,25.437224 C32.4920405,34.8440485 29.2673137,44.5339626 27.7658612,54.7084653 C26.7795308,61.39317 25.6509364,68.1004868 25.1028476,74.8388612 C24.9080381,77.2319707 24.8108803,79.6430334 24.8577136,82.0440831 C24.8616338,82.2413945 24.9679166,87.6027569 25.9463274,86.4944307 C26.5027717,85.8641515 25.846471,80.9342637 25.8575165,80.1300745 C25.9206164,75.6006909 26.4200126,71.0991385 27.077418,66.6204605 C28.1597473,59.2464648 28.9737064,51.8732796 30.7564114,44.6253863 C31.0224062,43.5432095 31.272869,42.4025204 31.6850217,41.3652108 C32.1228126,40.2623487 31.6995467,40.7111406 32.6664766,40.3860767 C33.6060324,40.069977 34.6819293,40.2851866 35.6701795,39.8618978 C39.5902029,38.1826173 42.2277666,32.8246907 44.184115,29.3408927 C46.4216658,25.35703 48.0532059,21.0027907 49.4752292,16.679267 C50.5196115,13.5026045 51.3941329,10.3222841 52.0953273,7.0545978 C52.3162811,6.02473102 52.4736333,4.93741168 52.822205,3.94322682 C52.9161341,3.67503604 53.2615832,3.22580437 53.2858914,2.98002395 C53.3373041,2.45984923 53.0673539,2.11173537 53.102832,1.67355736 C52.7976427,1.87893306 52.4965504,2.09092916 52.2004172,2.30911873" id="Leaf-Me-Alone!" fill="#E1F3FB" transform="translate(39.069254, 44.159352) rotate(-8.000000) translate(-39.069254, -44.159352) "></path>
                    <path d="M10,91 C10,102.59798 19.1781626,112 30.5,112 C41.8218374,112 51,102.59798 51,91" id="Base" fill="#D5E5EC"></path>
                    <path d="M32.0800422,91.6462542 L31,91.6462542 C31.0749397,90.3167153 31.1739219,88.9895026 31.4004527,87.6747656 C32.2668763,82.6465119 34.9759823,75.2613224 40.9176782,74.4451831 C41.1368768,74.4147665 41.9431976,74.4096584 42.9199276,74.4658478 C43.3828374,74.2120668 43.9013716,74.0585908 44.4477182,74.0232983 C49.5064916,73.6573707 55.1559227,77.6616773 57.596098,81.8287474 C59.5632285,85.1885013 59.231838,89.600297 58.0168178,93.1697163 C57.2031904,95.5593907 55.4274462,98.9665108 52.466144,98.9997137 C48.7612164,99.0412752 48.5825578,94.548446 48.5109058,91.9219404 C48.415684,88.4300718 47.9659734,85.3881826 45.1616457,83.008028 C44.5080568,82.4535641 43.7936579,81.965738 43.1334695,81.4189363 C42.0997007,80.563093 40.9572754,79.6868172 40.8241063,78.2709375 C40.6402623,76.3175435 41.7640676,75.9660116 43.4799447,76.3289207 C43.7724452,76.3906826 46.7188984,77.6879145 46.2826225,76.6625743 C46.1494535,76.3493532 45.662974,76.1011447 45.0489823,75.9151625 C43.4601461,75.7456656 41.5653747,75.5490027 41.0204423,75.6664896 C35.1416776,76.9319118 32.8528201,84.9217178 32.2449565,89.9980343 C32.1793538,90.5459679 32.1263038,91.0956887 32.0800422,91.6462542 Z" id="Leaf-Me-Alone!" fill="#6FC7EE"></path>
                </g>
                <path d="M341.5,258 C342.880712,258 344,257.104569 344,256 C344,255.351544 343.097947,255.36544 342.5,255 C342.079414,254.742956 342.070142,254 341.5,254 C340.119288,254 339,254.895431 339,256 C339,257.104569 340.119288,258 341.5,258 Z" id="Oval" fill="#FFFFFF"></path>
                <g id="Path-14" transform="translate(341.000000, 305.000000)"></g>
                <path d="M344.848067,309.181808 L344.151933,308" id="Path-15" fill="#FFFFFF"></path>
                <g id="Plant-Right-Copy" opacity="0.7" transform="translate(0.500000, 186.000000)">
                    <path d="M29.1277657,41.050512 C24.1539733,41.3146166 18.3385963,44.8359955 18.374185,50.2516314 C18.4001518,54.1865557 18.9270432,58.0575087 18.7424664,62.0086805 C18.594684,65.1665032 17.904883,68.255476 16.8339516,71.2303565 C15.8041863,74.0910182 13.3180908,76.6953045 12.9138128,79.67823 C12.6561011,81.5788984 13.1833699,84.1590738 13.9978976,85.9061276 C14.9884244,88.0302544 14.5667757,87.8984631 13.2490255,89.9066323 C10.666869,93.842033 8.38938191,97.8387208 6.95755181,102.365269 C4.89504568,108.885122 3.87916601,116.359538 5.60508365,123.077659 C5.82451378,123.930783 6.30349182,127.024597 7.52343295,127.116146 C8.88596454,127.218645 8.07386428,125.505792 7.94210044,124.938768 C7.10191653,121.320752 6.36092731,118.15892 6.51833716,114.37815 C7.12588247,99.7906866 16.4691557,89.2396663 21.919212,76.3403354 C22.2231804,75.6727166 22.8470322,74.0934877 23.2863921,73.0487027 C23.9800378,71.3992189 24.5302829,68.3414352 25.5696403,67.0631716 C27.527046,64.655088 25.9772833,69.2454924 25.6391276,70.1262661 C25.2116303,71.2403654 24.7371901,72.4265449 24.2826135,73.4111776 C22.2084926,77.9718133 19.8822714,82.9566765 17.7392499,87.6584115 C29.2895426,89.0348936 35.8134374,74.6807877 37.9065882,65.47463 C39.6312028,57.889765 40.8160487,40.4555168 29.1277657,41.050512" id="Leaf-Me-Alone!" fill="#6FC7EE" transform="translate(21.861111, 84.078106) scale(-1, 1) rotate(6.000000) translate(-21.861111, -84.078106) "></path>
                    <path d="M76.6633608,28.5318446 C68.279578,29.189828 62.8973735,34.6620108 60.3919391,42.3158476 C59.0415996,46.4405563 58.8868249,50.6778349 58.1364303,54.9166429 C57.0075946,61.2939735 54.5787752,66.1268327 49.8320428,70.6703136 C48.3618379,72.0774376 47.2784151,73.5221869 46.5082489,75.067882 C44.979347,76.6111299 43.6484701,78.3574932 42.6707019,80.4926509 C41.4216919,83.2194124 41.0682743,86.4909757 42.5103665,89.2094781 C42.8980755,89.9402649 43.86534,91.4073446 44.8678227,92.0738931 C41.114614,99.9807063 39.0509516,108.640331 39.283577,117.288943 C39.4241409,122.509679 39.6817897,127.732556 39.9823801,132.946868 C40.0633201,134.346957 40.5242459,136.658923 41.2165614,134.310861 C41.8501799,132.163161 41.0556081,128.79157 40.9820824,126.547819 C40.6243397,115.617525 40.3184975,105.679253 44.8672048,95.4672032 C45.344195,94.3968712 45.8499159,93.3351044 46.3766441,92.2819027 C46.4075372,92.2641607 46.4362679,92.242748 46.4653074,92.221947 C46.485388,92.2372418 46.5036149,92.2537602 46.5236955,92.2687492 C46.557369,92.2094052 46.6033998,92.1387431 46.6571539,92.0598218 C46.8082214,91.90565 46.9401351,91.7107939 47.0655613,91.4933015 C47.4690259,90.9402406 47.9256266,90.2905164 47.9280981,89.9347587 C47.9280981,89.9320057 47.9265534,89.9277231 47.9265534,89.92497 C50.742464,85.3781242 53.9677087,81.0818076 57.2621542,76.8696125 C57.2374397,76.9002022 60.8355647,72.0541895 60.2791791,74.7341489 C60.0110266,76.025644 57.3644105,78.485052 56.2955075,79.8530213 C53.9309459,82.8963857 51.1542696,86.7525172 48.8468603,90.4813958 C48.5363842,90.6578981 48.0977014,91.5245029 47.7804288,92.1699446 C47.6052646,92.496948 47.4418399,92.8267044 47.2811955,93.1139412 C55.4570675,95.7859473 61.8170401,90.4036981 66.1538204,84.1435258 C66.1590722,84.1361843 66.1637062,84.1285369 66.1686491,84.1211954 C67.4884044,82.3913506 68.8402887,80.6737416 70.5292171,79.3063842 C73.3469813,77.024702 76.3646241,76.6221422 79.6868734,75.4991961 C88.7469072,72.4371719 92.598974,60.822587 93.8223427,52.2045644 C95.2026487,42.4819494 88.4509509,27.5731649 76.6633608,28.5318446" id="Leaf-Me-Alone!" fill="#D4EDF8"></path>
                    <path d="M68.1386148,3.01217096 C58.4551469,10.5922758 52.6630601,22.1796099 47.8233128,33.1579405 C42.4178882,45.4196369 38.2106019,58.0506226 36.2532121,71.3137941 C34.9673688,80.0277714 33.4958035,88.771187 32.7821069,97.5552486 C32.5284341,100.674876 32.4022523,103.817935 32.4640506,106.94798 C32.4692224,107.205198 32.6094425,114.194352 33.8864715,112.749794 C34.6127466,111.928309 33.7545867,105.501479 33.7687869,104.453133 C33.8499264,98.5486008 34.5006658,92.6804693 35.357695,86.8422003 C36.7686781,77.2296827 37.8292994,67.6181483 40.1546693,58.1702107 C40.5016342,56.7595472 40.8283057,55.272602 41.3660945,53.9204677 C41.9373364,52.4828855 41.3848783,53.0678193 42.647133,52.6443272 C43.8736527,52.2325134 45.2783134,52.513357 46.5683752,51.9618238 C51.6855737,49.7737691 55.1274931,42.7898445 57.6805869,38.2488659 C60.6006583,33.0560752 62.7294712,27.380292 64.5847648,21.7444927 C65.9473551,17.6036497 67.088188,13.4579919 68.0027158,9.19839552 C68.2908931,7.85591146 68.4960219,6.43851427 68.9508163,5.1425804 C69.0733689,4.79298994 69.5242359,4.20746157 69.5559034,3.88706644 C69.6228813,3.20897561 69.2703615,2.75509712 69.316559,2.18389365 C68.9181853,2.45153999 68.5251621,2.72781787 68.1386148,3.01217096" id="Leaf-Me-Alone!" fill="#E1F3FB" transform="translate(51.006466, 57.565047) rotate(-8.000000) translate(-51.006466, -57.565047) "></path>
                    <path d="M14.278481,118.699187 C14.278481,133.77701 25.9984195,146 40.4556962,146 C54.9129729,146 66.6329114,133.77701 66.6329114,118.699187" id="Base" fill="#D5E5EC"></path>
                    <path d="M43.0683739,119.605817 L41.6455696,119.605817 C41.7442921,117.838287 41.8746873,116.073849 42.1731099,114.325997 C43.3145016,107.641282 46.8833691,97.8231824 54.7107207,96.7381816 C54.9994841,96.6977449 56.0616988,96.690954 57.3484038,96.7656539 C57.9582224,96.4282696 58.6413187,96.2242339 59.3610538,96.177315 C66.0252788,95.6908395 73.4676125,101.014288 76.6822014,106.55412 C79.2736202,111.020681 78.8370596,116.885858 77.2364409,121.631155 C76.1646007,124.808061 73.8253066,129.337592 69.9242059,129.381733 C65.0434831,129.436986 64.8081254,123.46408 64.7137339,119.972323 C64.5882926,115.330125 63.9958619,111.286143 60.3015531,108.121892 C59.4405413,107.384771 58.499421,106.73624 57.6297152,106.009305 C56.2678697,104.87152 54.7628844,103.706572 54.5874529,101.824258 C54.3452642,99.2273555 55.8257201,98.760018 58.0861477,99.2424806 C58.4714761,99.3245888 62.3530154,101.049169 61.778283,99.6860499 C61.6028515,99.2696442 60.961983,98.9396682 60.1531349,98.6924177 C58.0600659,98.4670832 55.5639701,98.2056336 54.846098,98.3618243 C47.1016494,100.044116 44.0864004,110.666011 43.2856253,117.414623 C43.199203,118.143062 43.129317,118.873878 43.0683738,119.605817 Z" id="Leaf-Me-Alone!" fill="#6FC7EE"></path>
                </g>
                <g id="Group-4" transform="translate(63.000000, 0.000000)">
                    <circle id="Oval" fill="#E1F3FB" cx="35" cy="35" r="19"></circle>
                    <circle id="Oval-Copy-5" stroke="#6FC7EE" opacity="0.343308222" cx="35" cy="35" r="24.5"></circle>
                    <circle id="Oval-Copy-10" stroke="#60BCDB" opacity="0.0585704985" cx="35" cy="35" r="34.5"></circle>
                    <g id="broken-link" transform="translate(27.000000, 27.000000)" fill="#6FC7EE">
                        <path d="M14.909036,1.09986254 C13.4521176,-0.366910249 11.0813192,-0.366331413 9.62411332,1.09986254 L6.98165197,3.76019707 C6.75713475,3.9862329 6.75713475,4.35263667 6.98165197,4.5786725 C7.20616919,4.80470832 7.57011132,4.80470832 7.79462855,4.5786725 L10.4370899,1.91833796 C10.9232085,1.42922075 11.5728998,1.15948274 12.2662872,1.15948274 C12.9599621,1.15948274 13.6096534,1.42922075 14.095772,1.91862738 C14.5818906,2.408034 14.8498164,3.06211973 14.8498164,3.76048649 C14.8498164,4.45856383 14.5818906,5.11264957 14.095772,5.60205619 L10.6406215,9.08144499 C9.63158765,10.096725 7.99039837,10.096725 6.9813645,9.08144499 C6.75684727,8.85540917 6.39290514,8.85540917 6.16838792,9.08144499 C5.94387069,9.30748081 5.94387069,9.67417401 6.16838792,9.89992041 C6.89684713,10.6333068 7.8538482,11 8.81084927,11 C9.76785034,11 10.7248514,10.6333068 11.4533106,9.89992041 L14.909036,6.42082103 C15.612485,5.71290346 16,4.76795217 16,3.76048649 C16,2.75273139 15.612485,1.80806952 14.909036,1.09986254 Z" id="Path"></path>
                        <path d="M7.96091291,11.7523303 L5.67848523,14.0465026 C5.18226702,14.5452742 4.5190777,14.8201737 3.81099104,14.8201737 C3.10319783,14.8201737 2.43971506,14.5452742 1.94349686,14.0465026 C0.913792724,13.0115 0.913792724,11.3272979 1.94349686,10.2922953 L5.26355173,6.95515655 C5.75976994,6.45667993 6.42295926,6.1817804 7.13104592,6.1817804 C7.83883913,6.1817804 8.50202845,6.45667993 8.99824666,6.95515655 C9.22742845,7.18551763 9.59893185,7.18551763 9.82811365,6.95515655 C10.0572954,6.72479546 10.0572954,6.35138043 9.82811365,6.12101935 C8.34121971,4.62647437 5.92116557,4.62617941 4.43339129,6.12101935 L1.11333641,9.45845302 C0.395566022,10.1799168 0,11.14295 0,12.1696939 C0,13.1961428 0.395566022,14.159176 1.11362986,14.8806398 C1.83140025,15.6023985 2.78950341,16 3.8106976,16 C4.83218522,16 5.79028838,15.6023985 6.50805878,14.8806398 L8.79048646,12.5864675 C9.01966826,12.3561064 9.01966826,11.9826914 8.79048646,11.7523303 C8.56130466,11.5219692 8.19009471,11.5219692 7.96091291,11.7523303 Z" id="Path"></path>
                        <path d="M9.5,13 C9.224,13 9,13.2688 9,13.6 L9,15.4 C9,15.7312 9.224,16 9.5,16 C9.776,16 10,15.7312 10,15.4 L10,13.6 C10,13.2685 9.77625,13 9.5,13 Z" id="Path"></path>
                        <path d="M11.8284293,13.1421421 C11.6389007,12.9526193 11.3316751,12.9526193 11.1421465,13.1421421 C10.9526178,13.331665 10.9526178,13.6388813 11.1421465,13.8284042 L12.1715707,14.8577972 C12.2664563,14.95268 12.3904629,15 12.5147121,15 C12.6389614,15 12.7629679,14.95268 12.8578535,14.8577972 C13.0473822,14.6682743 13.0473822,14.361058 12.8578535,14.1715352 L11.8284293,13.1421421 Z" id="Path"></path>
                        <path d="M13.4,11 L11.6,11 C11.2688,11 11,11.224 11,11.5 C11,11.776 11.2688,12 11.6,12 L13.4,12 C13.7312,12 14,11.776 14,11.5 C14,11.224 13.7315,11 13.4,11 Z" id="Path"></path>
                        <path d="M5.5,4 C5.776,4 6,3.7312 6,3.4 L6,1.6 C6,1.2688 5.776,1 5.5,1 C5.224,1 5,1.2688 5,1.6 L5,3.4 C5,3.7312 5.224,4 5.5,4 Z" id="Path"></path>
                        <path d="M3.17157071,3.85781444 C3.26645635,3.95268569 3.3904629,4 3.51471213,4 C3.63896135,4 3.76296791,3.95268569 3.85785355,3.85781444 C4.04738215,3.66831458 4.04738215,3.36113554 3.85785355,3.17163568 L2.82842929,2.1421249 C2.63890069,1.95262503 2.33167506,1.95262503 2.14214645,2.1421249 C1.95261785,2.33162476 1.95261785,2.6388038 2.14214645,2.82830366 L3.17157071,3.85781444 Z" id="Path"></path>
                        <path d="M1.6,6 L3.4,6 C3.7312,6 4,5.776 4,5.5 C4,5.224 3.7312,5 3.4,5 L1.6,5 C1.2688,5 1,5.224 1,5.5 C1,5.776 1.2688,6 1.6,6 Z" id="Path"></path>
                    </g>
                </g>
                <circle id="Oval" stroke="#6FC7EE" stroke-width="3" cx="217" cy="246" r="8"></circle>
                <g id="Group-6" transform="translate(277.000000, 283.000000)" stroke="#65BEDD">
                    <circle id="Oval-Copy-11" stroke-width="3" cx="10.5" cy="11.3753701" r="3.5"></circle>
                    <circle id="Oval-Copy-12" opacity="0.102376302" cx="10.5" cy="11.3753701" r="10.5"></circle>
                </g>
                <g id="Group-6-Copy" transform="translate(449.000000, 175.000000)">
                    <circle id="Oval-Copy-11" stroke="#6FC7EE" stroke-width="3" cx="10.5" cy="11.3753701" r="3.5"></circle>
                    <circle id="Oval-Copy-12" stroke="#65BEDD" opacity="0.102376302" cx="10.5" cy="11.3753701" r="10.5"></circle>
                </g>
            </g>
        </g>
    </g>
</svg>