<?xml version="1.0" encoding="utf-8"?>
<!-- Generator: Adobe Illustrator 23.0.1, SVG Export Plug-In . SVG Version: 6.00 Build 0)  -->
<svg version="1.1" id="Layer_1" xmlns="http://www.w3.org/2000/svg" xmlns:xlink="http://www.w3.org/1999/xlink" x="0px" y="0px"
	 viewBox="0 0 22.7 22.7" style="enable-background:new 0 0 22.7 22.7;" xml:space="preserve">
<style type="text/css">
	.Drop_x0020_Shadow{fill:none;}
	.Round_x0020_Corners_x0020_2_x0020_pt{fill:#FFFFFF;stroke:#000000;stroke-miterlimit:10;}
	.Live_x0020_Reflect_x0020_X{fill:none;}
	.Bevel_x0020_Soft{fill:url(#SVGID_1_);}
	.Dusk{fill:#FFFFFF;}
	.Foliage_GS{fill:#FFDD00;}
	.Pompadour_GS{fill-rule:evenodd;clip-rule:evenodd;fill:#44ADE2;}
	.st0{fill:#444A54;}
</style>
<linearGradient id="SVGID_1_" gradientUnits="userSpaceOnUse" x1="0" y1="0" x2="0.7071" y2="0.7071">
	<stop  offset="0" style="stop-color:#DEDFE3"/>
	<stop  offset="0.1738" style="stop-color:#D8D9DD"/>
	<stop  offset="0.352" style="stop-color:#C9CACD"/>
	<stop  offset="0.5323" style="stop-color:#B4B5B8"/>
	<stop  offset="0.7139" style="stop-color:#989A9C"/>
	<stop  offset="0.8949" style="stop-color:#797C7E"/>
	<stop  offset="1" style="stop-color:#656B6C"/>
</linearGradient>
<path class="st0" d="M21.9,11.8h-3.1c0,0-0.1,0-0.1,0c-0.2-2.6-2-4.7-4.8-5.5c0,0,0,0,0,0c0,0-0.1,0-0.1,0h0c0,0,0,0,0,0
	c-0.2,0-0.4,0.2-0.5,0.4c0,0,0,0,0,0c0,0,0,0,0,0c0,0,0,0.1,0,0.1V10c0,0,0,0,0,0h-2.1c-0.3,0-0.5,0.2-0.5,0.5s0.2,0.5,0.5,0.5h2.1
	c0,0,0,0,0,0v2.7c0,0,0,0,0,0h-2.1c-0.3,0-0.5,0.2-0.5,0.5s0.2,0.5,0.5,0.5h2.1c0,0,0,0,0,0v3.1c0,0.1,0,0.3,0.1,0.4
	c0.1,0.1,0.2,0.2,0.4,0.2c0,0,0.1,0,0.1,0c2.9-0.8,4.7-2.8,4.9-5.5c0,0,0.1,0,0.1,0h3.1c0.3,0,0.5-0.2,0.5-0.5S22.2,11.8,21.9,11.8z
	 M14.2,17.1l0-9.6c2.2,0.8,3.5,2.6,3.5,4.8C17.7,14.6,16.4,16.3,14.2,17.1z"/>
<path class="st0" d="M9.5,17.7V6.9c0-0.1,0-0.3-0.1-0.4C9.2,6.4,9.1,6.3,8.9,6.4C6,7.1,4.2,9.2,4,11.8c0,0,0,0,0,0H0.8
	c-0.3,0-0.5,0.2-0.5,0.5s0.2,0.5,0.5,0.5H4c0,0,0,0,0,0c0.2,2.6,2,4.7,4.8,5.5c0,0,0.1,0,0.1,0c0,0,0,0,0,0c0,0,0.1,0,0.1,0
	c0,0,0,0,0,0c0.3,0,0.4-0.2,0.5-0.4V17.7z M5,12.3c0-2.2,1.3-4,3.5-4.8l0,9.6C6.3,16.3,5,14.6,5,12.3z"/>
</svg>
