<?xml version="1.0" encoding="utf-8"?>
<!-- Generator: Adobe Illustrator 23.0.1, SVG Export Plug-In . SVG Version: 6.00 Build 0)  -->
<svg version="1.1" id="Layer_1" xmlns="http://www.w3.org/2000/svg" xmlns:xlink="http://www.w3.org/1999/xlink" x="0px" y="0px"
	 viewBox="0 0 20 20" style="enable-background:new 0 0 20 20;" xml:space="preserve">
<style type="text/css">
	.st0{fill:#439BC3;}
</style>
<title>reports</title>
<desc>Created with Sketch.</desc>
<g>
	<path class="st0" d="M8.6,11.9H2.9c-0.3,0-0.5,0.2-0.5,0.5s0.2,0.5,0.5,0.5h5.6c0.3,0,0.5-0.2,0.5-0.5S8.8,11.9,8.6,11.9z"/>
	<path class="st0" d="M6.6,13.8H2.9c-0.3,0-0.5,0.2-0.5,0.5s0.2,0.5,0.5,0.5h3.7c0.3,0,0.5-0.2,0.5-0.5S6.9,13.8,6.6,13.8z"/>
	<path class="st0" d="M11,7.6c0,0.3,0.2,0.5,0.5,0.5h5.6c0.3,0,0.5-0.2,0.5-0.5s-0.2-0.5-0.5-0.5h-5.6C11.2,7.1,11,7.3,11,7.6z"/>
	<path class="st0" d="M15.2,9h-3.7C11.2,9,11,9.3,11,9.5s0.2,0.5,0.5,0.5h3.7c0.3,0,0.5-0.2,0.5-0.5S15.4,9,15.2,9z"/>
	<path class="st0" d="M19.4,4.6c0-0.1-0.1-0.2-0.1-0.2l-3.8-3.7c-0.1-0.1-0.1-0.1-0.2-0.1c-0.1-0.1-0.3-0.1-0.4-0.1h-4.8
		c-0.6,0-1,0.4-1,1v6.1L6.9,5.5C6.9,5.4,6.8,5.4,6.7,5.4C6.6,5.3,6.5,5.2,6.3,5.2H1.2C0.8,5.2,0.5,5.6,0.5,6v12.8
		c0,0.4,0.3,0.8,0.7,0.8h9c0.4,0,0.7-0.3,0.7-0.8v-4h7.8c0.4,0,0.7-0.3,0.7-0.8V5C19.5,4.8,19.5,4.7,19.4,4.6z M15.7,2.3l2,2h-2V2.3
		z M7.1,7.1l2,2l0,0h-2V7.1z M1.5,18.5V6.2h4.7V10h3.2l0.6,2.7v5.8H1.5z M18.5,13.8h-7.3L11,12.6V9.7c0-0.1,0-0.3-0.1-0.4
		c0-0.1-0.1-0.2-0.1-0.2l-0.7-0.6v-7h4.6v3.8h3.8V13.8z"/>
</g>
</svg>
