<?xml version="1.0" encoding="utf-8"?>
<!-- Generator: Adobe Illustrator 18.1.1, SVG Export Plug-In . SVG Version: 6.00 Build 0)  -->
<svg version="1.1" id="Layer_1" xmlns="http://www.w3.org/2000/svg" xmlns:xlink="http://www.w3.org/1999/xlink" x="0px" y="0px"
	 width="146px" height="36px" viewBox="0 0 146 36" enable-background="new 0 0 146 36" xml:space="preserve">
<path fill="#414042" d="M58.4,35.5c-0.4,0-0.6-0.2-0.6-0.5V1c0-0.3,0.3-0.5,0.6-0.5C58.8,0.5,59,0.7,59,1V35
	C59,35.3,58.8,35.5,58.4,35.5"/>
<g>
	<path fill="#414042" d="M75.8,11.5c0-0.8,0.6-1.4,1.4-1.4h4.4c4.9,0,8.3,3.4,8.3,7.7v0c0,4.4-3.4,7.8-8.3,7.8h-4.4
		c-0.8,0-1.4-0.6-1.4-1.4V11.5z M81.6,23.2c3.3,0,5.4-2.2,5.4-5.2v0c0-3-2.1-5.3-5.4-5.3h-3.1v10.6H81.6z"/>
	<path fill="#414042" d="M93,18L93,18c0-4.4,3.4-8.1,8.2-8.1c4.8,0,8.1,3.6,8.1,8v0c0,4.4-3.4,8-8.2,8S93,22.3,93,18z M106.4,18
		L106.4,18c0-3.1-2.2-5.6-5.3-5.6s-5.2,2.5-5.2,5.5v0c0,3,2.2,5.5,5.3,5.5C104.2,23.4,106.4,21,106.4,18z"/>
	<path fill="#414042" d="M112.3,18L112.3,18c0-4.5,3.3-8.1,8-8.1c2.4,0,4,0.7,5.3,1.8c0.3,0.2,0.5,0.6,0.5,1.1
		c0,0.8-0.6,1.3-1.4,1.3c-0.4,0-0.6-0.1-0.8-0.3c-1.1-0.9-2.2-1.4-3.7-1.4c-3,0-5.1,2.4-5.1,5.5v0c0,3,2.2,5.5,5.1,5.5
		c1.6,0,2.8-0.5,3.9-1.5c0.2-0.2,0.5-0.3,0.8-0.3c0.7,0,1.3,0.6,1.3,1.3c0,0.4-0.2,0.8-0.4,1c-1.5,1.3-3.1,2.1-5.6,2.1
		C115.7,26,112.3,22.4,112.3,18z"/>
	<path fill="#414042" d="M129.4,24c-0.3-0.2-0.5-0.6-0.5-1c0-0.7,0.6-1.3,1.3-1.3c0.4,0,0.6,0.1,0.8,0.2c1.3,1,2.7,1.6,4.4,1.6
		c1.7,0,2.8-0.8,2.8-2v0c0-1.1-0.6-1.7-3.5-2.4c-3.3-0.8-5.2-1.8-5.2-4.6v0c0-2.7,2.2-4.5,5.3-4.5c2,0,3.5,0.5,4.9,1.4
		c0.3,0.2,0.6,0.6,0.6,1.1c0,0.7-0.6,1.3-1.3,1.3c-0.3,0-0.5-0.1-0.7-0.2c-1.2-0.8-2.4-1.2-3.6-1.2c-1.6,0-2.5,0.8-2.5,1.8v0
		c0,1.2,0.7,1.7,3.7,2.4c3.3,0.8,5,2,5,4.6v0c0,2.9-2.3,4.6-5.6,4.6C133.2,25.9,131.2,25.2,129.4,24z"/>
</g>
<path fill="#414042" stroke="#414042" stroke-width="0.1" stroke-miterlimit="10" d="M43.2,4.2L43.2,4.2c0-0.8,0.7-1.5,1.5-1.5
	c0.8,0,1.5,0.7,1.5,1.5v0c0,0.8-0.7,1.5-1.5,1.5C43.8,5.7,43.2,5.1,43.2,4.2 M45.9,4.2L45.9,4.2c0-0.7-0.5-1.3-1.3-1.3
	c-0.7,0-1.3,0.6-1.3,1.3v0c0,0.7,0.5,1.3,1.3,1.3C45.4,5.5,45.9,4.9,45.9,4.2 M44.1,3.6c0-0.1,0.1-0.1,0.1-0.1h0.5
	c0.3,0,0.6,0.2,0.6,0.5c0,0.2-0.1,0.4-0.3,0.5l0.3,0.3c0,0,0,0.1,0,0.1c0,0.1-0.1,0.1-0.1,0.1c-0.1,0-0.1,0-0.1-0.1l-0.4-0.5h-0.3
	v0.4c0,0.1-0.1,0.2-0.1,0.2c-0.1,0-0.1-0.1-0.1-0.2V3.6z M44.8,4.2c0.2,0,0.3-0.1,0.3-0.3c0-0.2-0.1-0.3-0.3-0.3h-0.4v0.5H44.8z"/>
<path fill="#96CA4F" d="M41.8,5.3c0,0,0,0.1,0,0.1C41.8,5.4,41.8,5.4,41.8,5.3z"/>
<g>
	<g>
		<path fill="#00A98F" d="M5.7,6.7c0,0.1,0,0.2,0,0.3v22.7c0,2.3,1.9,4.1,4.1,4.1c2.3,0,4.1-1.9,4.1-4.1V17L6.9,10
			C6,9.1,5.6,7.9,5.7,6.7 M10,2.9c0.2,0,0.3,0,0.5,0.1C10.3,2.9,10.1,2.9,10,2.9"/>
		<path fill="#3CA5D5" d="M29.4,20.8l-5.9,5.9l0,0L29.4,20.8L29.4,20.8 M10.5,3c2,0.3,3.5,2,3.5,4.1v10l3.7,3.7l5.9-5.9L12.7,4.1
			C12.1,3.5,11.3,3.1,10.5,3"/>
		<path fill="#006D77" d="M9.8,2.9c-2.2,0-4,1.7-4.1,3.9C5.6,7.9,6,9.1,6.9,10l7.1,7.1V7c0-2-1.5-3.8-3.5-4.1c-0.2,0-0.3,0-0.5-0.1
			C9.9,2.9,9.9,2.9,9.8,2.9"/>
		<path fill="#96CA4F" d="M41.4,7c0,1.1-0.4,2.2-1.2,3L33.1,17v12.7c0,2.3,1.9,4.1,4.1,4.1c2.3,0,4.1-1.9,4.1-4.1L41.4,7
			C41.4,7,41.4,7,41.4,7 M37.1,2.9c-0.2,0-0.3,0-0.5,0C36.8,2.9,36.9,2.9,37.1,2.9"/>
		<path fill="#00B157" d="M17.7,20.8L17.7,20.8l5.9,5.9l0,0L17.7,20.8 M36.6,3c-0.8,0.1-1.6,0.5-2.3,1.2L23.5,14.9l5.9,5.9l3.7-3.7
			V7C33.1,5,34.6,3.3,36.6,3"/>
		<polyline fill="#007349" points="23.5,14.9 17.7,20.8 23.5,26.6 29.4,20.8 23.5,14.9 		"/>
	</g>
	<path fill="#008C1B" d="M37.3,2.9c-0.1,0-0.1,0-0.2,0c-0.2,0-0.3,0-0.5,0c-2,0.3-3.5,2-3.5,4.1v10l7.1-7.1c0.8-0.8,1.2-1.9,1.2-3
		C41.4,4.7,39.5,2.9,37.3,2.9"/>
</g>
</svg>
