<?xml version="1.0" encoding="utf-8"?>
<!-- Generator: Adobe Illustrator 23.0.1, SVG Export Plug-In . SVG Version: 6.00 Build 0)  -->
<svg version="1.1" id="Layer_1" xmlns="http://www.w3.org/2000/svg" xmlns:xlink="http://www.w3.org/1999/xlink" x="0px" y="0px"
	 viewBox="0 0 19 19" style="enable-background:new 0 0 19 19;" xml:space="preserve">
<style type="text/css">
	.st0{fill:#434A54;}
</style>
<title>alert-icon</title>
<desc>Created with Sketch.</desc>
<path class="st0" d="M13.4,9.1l0.4,0.6V8.8l0.1-0.1h1l-0.5-0.5l0.5-0.5h-1l-0.1-0.1V7l1.1-1h-1.1V4.3h1.1l-1.1-1v-1l-0.4,0.6L13,2.3
	v0.9l-1.1,1H13V6h-1.1L13,7v0.6l-0.1,0.1h-1l0.5,0.5l-0.5,0.5h1L13,8.8v0.9L13.4,9.1z"/>
<path class="st0" d="M18.3,4c-0.8-2-2.7-3.4-5-3.4c-2,0-3.7,1.1-4.6,2.7V2.1c0-0.8-0.5-1.4-1.3-1.4c0,0,0,0-0.1,0
	C6.5,0.7,6,1.3,6,2.1v2.4C3.6,5.2,3,8,2.8,12c0,0.5-0.5,1.2-1,1.1c-0.1,0-0.3-0.1-0.4-0.1c-0.3-0.1-0.6,0.4-0.6,0.8
	c0,0.5,0,1.9,0,1.9c0,0.4,0.3,0.8,0.8,0.8h2.8c0.4,1.1,1.6,1.8,3,1.8c1.4,0,2.5-0.8,2.9-1.8h1.6h1.2h0l0,0c0.5,0,0.8-0.4,0.8-0.8
	l0,0c0,0,0-1.4,0-1.9c0-0.4-0.3-0.9-0.6-0.8c-0.1,0-0.3,0.1-0.4,0.1c-0.5,0.1-1-0.6-1-1.1c0-0.3,0-0.6-0.1-0.8
	c0.5,0.1,1,0.2,1.5,0.2c2.6,0,4.8-1.9,5.3-4.3c0.1-0.3,0.1-0.7,0.1-1.1C18.7,5.3,18.6,4.7,18.3,4z M9.2,6.1c0-0.1,0-0.1,0-0.2
	c0.6,0.5,1.1,1.5,1.4,3.3C9.9,8.5,9.4,7.5,9.2,6.5C9.2,6.4,9.2,6.2,9.2,6.1z M7,2.1c0-0.2,0.2-0.4,0.4-0.4c0.2,0,0.3,0.2,0.3,0.4
	v2.2H7.4c0,0,0,0-0.1,0H7V2.1z M7.3,17.3c-0.7,0-1.4-0.3-1.8-0.8h1.8h1.8C8.7,17,8.1,17.3,7.3,17.3z M12.7,14h0.2v0.1v0.5h0v0.9h-1
	H7.3H1.8V14H2c1-0.2,1.7-1,1.8-2C4,6.4,5.3,5.3,7.1,5.3c0.1,0,0.1,0,0.2,0c0.2,0,0.4,0.1,0.7,0.1C8,5.7,7.9,5.8,7.9,6
	c0,2.1,1.2,3.8,2.9,4.7c0.1,0.4,0.1,0.9,0.1,1.3C11,13,11.7,13.8,12.7,14z M13.3,10.1c-0.6,0-1.1-0.1-1.6-0.3
	c-0.3-2.4-0.9-4.2-2.3-5c0.5-1.7,2.1-2.9,3.9-2.9c2.3,0,4.1,1.8,4.1,4.1S15.6,10.1,13.3,10.1z"/>
</svg>
