<?xml version="1.0" encoding="UTF-8"?>
<svg width="18px" height="17px" viewBox="0 0 18 17" version="1.1" xmlns="http://www.w3.org/2000/svg" xmlns:xlink="http://www.w3.org/1999/xlink">
    <!-- Generator: Sketch 52.5 (67469) - http://www.bohemiancoding.com/sketch -->
    <title>home-icon-silhouette</title>
    <desc>Created with Sketch.</desc>
    <g id="Page-1" stroke="none" stroke-width="1" fill="none" fill-rule="evenodd">
        <g id="Reports" transform="translate(-481.000000, -116.000000)" fill="#C3C3C3">
            <g id="breadcrumbs" transform="translate(481.000000, 110.000000)">
                <g id="home-icon-silhouette" transform="translate(0.000000, 6.000000)">
                    <path d="M17.6763992,7.56704032 L14.9517218,4.8423629 L14.9517218,1.69490323 C14.9517218,1.12579839 14.4905444,0.664584677 13.9206048,0.664584677 C13.3519718,0.664584677 12.8907944,1.12579839 12.8907944,1.69490323 L12.8907944,2.78147177 L10.8620565,0.75266129 C9.85902823,-0.249822581 8.11509677,-0.248044355 7.11435484,0.754475806 L0.301645161,7.56704032 C-0.100524194,7.97000806 -0.100524194,8.62203629 0.301645161,9.0243871 C0.703995968,9.42724597 1.35729435,9.42724597 1.7595,9.0243871 L8.57155645,2.21164113 C8.79347177,1.9908871 9.18460887,1.9908871 9.4053629,2.2109879 L16.2185806,9.0243871 C16.4206089,9.22583468 16.684004,9.32603226 16.9473266,9.32603226 C17.2111935,9.32603226 17.4750242,9.22572581 17.6764355,9.0243871 C18.07875,8.62207258 18.07875,7.97004435 17.6763992,7.56704032 Z" id="Path"></path>
                    <path d="M9.34697177,4.16743548 C9.14904435,3.96961694 8.82856452,3.96961694 8.63121774,4.16743548 L2.63874194,10.1581331 C2.54413306,10.2527056 2.49049597,10.3818266 2.49049597,10.5165726 L2.49049597,14.8859637 C2.49049597,15.9112742 3.32183468,16.7425766 4.34710887,16.7425766 L7.3139879,16.7425766 L7.3139879,12.1478589 L10.6635484,12.1478589 L10.6635484,16.7425766 L13.6304637,16.7425766 C14.6557016,16.7425766 15.4870403,15.9112742 15.4870403,14.886 L15.4870403,10.5165726 C15.4870403,10.3818266 15.433875,10.2527056 15.3387944,10.1581331 L9.34697177,4.16743548 Z" id="Path"></path>
                </g>
            </g>
        </g>
    </g>
</svg>