<?xml version="1.0" encoding="utf-8"?>
<!-- Generator: Adobe Illustrator 23.0.1, SVG Export Plug-In . SVG Version: 6.00 Build 0)  -->
<svg version="1.1" id="Layer_1" xmlns="http://www.w3.org/2000/svg" xmlns:xlink="http://www.w3.org/1999/xlink" x="0px" y="0px"
	 viewBox="0 0 14 10" style="enable-background:new 0 0 14 10;" xml:space="preserve">
<style type="text/css">
	.st0{fill:#9EA1A6;}
</style>
<title>Path</title>
<desc>Created with Sketch.</desc>
<path class="st0" d="M13,4.5L9.3,0.8C9.1,0.6,8.9,0.6,8.7,0.6c-0.2,0-0.4,0.1-0.5,0.2C8.1,0.9,8,1.1,8,1.3c0,0.2,0.1,0.4,0.2,0.5
	l2.5,2.5H1.5C1.1,4.3,0.8,4.6,0.8,5c0,0.4,0.3,0.7,0.7,0.7h9.2L8.2,8.2C8,8.5,8,8.9,8.2,9.2c0.1,0.1,0.3,0.2,0.5,0.2c0,0,0,0,0,0
	c0.2,0,0.4-0.1,0.5-0.2L13,5.5c0.1-0.1,0.2-0.3,0.2-0.5C13.2,4.8,13.1,4.6,13,4.5z"/>
</svg>
