<?xml version="1.0" encoding="utf-8"?>
<!-- Generator: Adobe Illustrator 23.0.1, SVG Export Plug-In . SVG Version: 6.00 Build 0)  -->
<svg version="1.1" id="Layer_1" xmlns="http://www.w3.org/2000/svg" xmlns:xlink="http://www.w3.org/1999/xlink" x="0px" y="0px"
	 viewBox="0 0 14 10" style="enable-background:new 0 0 14 10;" xml:space="preserve">
<style type="text/css">
	.st0{fill:#9EA1A6;}
</style>
<title>Path</title>
<desc>Created with Sketch.</desc>
<path class="st0" d="M12.5,4.3H3.3l2.5-2.5c0.3-0.3,0.3-0.7,0-1C5.6,0.6,5.4,0.6,5.3,0.6c-0.2,0-0.4,0.1-0.5,0.2L1,4.5
	C0.9,4.6,0.8,4.8,0.8,5c0,0.2,0.1,0.4,0.2,0.5l3.7,3.7c0.1,0.1,0.3,0.2,0.5,0.2c0,0,0,0,0,0c0.2,0,0.4-0.1,0.5-0.2
	c0.3-0.3,0.3-0.7,0-1L3.3,5.7h9.2c0.4,0,0.7-0.3,0.7-0.7C13.2,4.6,12.9,4.3,12.5,4.3z"/>
</svg>
