<?xml version="1.0" encoding="utf-8"?>
<!-- Generator: Adobe Illustrator 23.0.1, SVG Export Plug-In . SVG Version: 6.00 Build 0)  -->
<svg version="1.1" id="Layer_1" xmlns="http://www.w3.org/2000/svg" xmlns:xlink="http://www.w3.org/1999/xlink" x="0px" y="0px"
	 viewBox="0 0 17 16" style="enable-background:new 0 0 17 16;" xml:space="preserve">
<style type="text/css">
	.st0{fill:#4B93BB;}
</style>
<title>right-arrow</title>
<desc>Created with Sketch.</desc>
<path class="st0" d="M15.8,0.7c-0.2-0.2-0.4-0.3-0.7-0.3L6.5,0.8c-0.5,0-0.9,0.4-1,1c0,0.3,0.1,0.5,0.3,0.7c0.2,0.2,0.4,0.3,0.7,0.3
	l6.4-0.2L1.2,14c-0.4,0.4-0.4,1,0,1.3c0.2,0.2,0.4,0.3,0.6,0.3c0.2,0,0.5-0.1,0.7-0.3L14.1,3.7l-0.2,6.4c0,0.3,0.1,0.5,0.3,0.7
	c0.2,0.2,0.4,0.3,0.7,0.3c0.5,0,0.9-0.5,1-1L16,1.4C16.1,1.1,16,0.9,15.8,0.7z"/>
</svg>
