<?xml version="1.0" encoding="utf-8"?>
<!-- Generator: Adobe Illustrator 23.0.1, SVG Export Plug-In . SVG Version: 6.00 Build 0)  -->
<svg version="1.1" id="Layer_1" xmlns="http://www.w3.org/2000/svg" xmlns:xlink="http://www.w3.org/1999/xlink" x="0px" y="0px"
	 viewBox="0 0 21 17" style="enable-background:new 0 0 21 17;" xml:space="preserve">
<style type="text/css">
	.st0{fill:#434A54;}
</style>
<title>visualization-icon</title>
<desc>Created with Sketch.</desc>
<g>
	<path class="st0" d="M18.7,0.5H2.3C1.5,0.5,0.8,1.2,0.8,2v13c0,0.8,0.7,1.5,1.5,1.5h16.3c0.8,0,1.5-0.7,1.5-1.5V2
		C20.2,1.2,19.5,0.5,18.7,0.5z M19.2,15c0,0.3-0.2,0.5-0.5,0.5H2.3c-0.3,0-0.5-0.2-0.5-0.5V2c0-0.3,0.2-0.5,0.5-0.5h16.3
		c0.3,0,0.5,0.2,0.5,0.5V15z"/>
	<path class="st0" d="M3.8,11.3c-0.3,0-0.5,0.2-0.5,0.5v1.7c0,0.3,0.2,0.5,0.5,0.5s0.5-0.2,0.5-0.5v-1.7C4.3,11.6,4.1,11.3,3.8,11.3
		z"/>
	<path class="st0" d="M7.2,10.5c-0.3,0-0.5,0.2-0.5,0.5v2.5c0,0.3,0.2,0.5,0.5,0.5s0.5-0.2,0.5-0.5V11C7.7,10.7,7.4,10.5,7.2,10.5z"
		/>
	<path class="st0" d="M10.5,8.8c-0.3,0-0.5,0.2-0.5,0.5v4.2c0,0.3,0.2,0.5,0.5,0.5s0.5-0.2,0.5-0.5V9.3C11,9.1,10.8,8.8,10.5,8.8z"
		/>
	<path class="st0" d="M13.8,11.3c-0.3,0-0.5,0.2-0.5,0.5v1.7c0,0.3,0.2,0.5,0.5,0.5s0.5-0.2,0.5-0.5v-1.7
		C14.3,11.6,14.1,11.3,13.8,11.3z"/>
	<path class="st0" d="M17.2,9.7c-0.3,0-0.5,0.2-0.5,0.5v3.3c0,0.3,0.2,0.5,0.5,0.5s0.5-0.2,0.5-0.5v-3.3C17.7,9.9,17.4,9.7,17.2,9.7
		z"/>
	<path class="st0" d="M17.2,3h-6c-0.3,0-0.5,0.2-0.5,0.5S10.9,4,11.1,4h6c0.3,0,0.5-0.2,0.5-0.5S17.4,3,17.2,3z"/>
	<path class="st0" d="M6.3,3.1C4.7,3.1,3.4,4.4,3.4,6s1.3,2.9,2.9,2.9S9.2,7.6,9.2,6S7.9,3.1,6.3,3.1z M8.2,5.5H7.3
		C7.1,5.5,6.8,5.3,6.8,5V4.1C7.5,4.3,8,4.8,8.2,5.5z M6.3,7.9C5.3,7.9,4.4,7,4.4,6c0-0.9,0.6-1.6,1.4-1.8V5c0,0.8,0.7,1.5,1.5,1.5
		h0.8C7.9,7.3,7.2,7.9,6.3,7.9z"/>
</g>
</svg>
